<?xml version="1.0" encoding="utf-8"?>
<!-- Generator: Adobe Illustrator 26.1.0, SVG Export Plug-In . SVG Version: 6.00 Build 0)  -->
<svg version="1.1" id="Layer_1" xmlns="http://www.w3.org/2000/svg" xmlns:xlink="http://www.w3.org/1999/xlink" x="0px" y="0px"
	 viewBox="0 0 160 35" style="enable-background:new 0 0 160 35;" xml:space="preserve">
<g>
	<path style="fill:#E74241;" d="M17.8,26.3c0.4-1.9,0-3.9-1.3-5.4c0-0.4,0.1-0.7,0.1-1.1c0-2.2-0.8-4.4-2.5-6.2
		c-0.4-0.4-0.8-0.7-1.2-1c-0.4,0.3-0.7,0.5-1,0.8c-1.7,1.7-2.6,3.9-2.6,6.1c0,0.4,0,0.8,0,1.2c-1.5,1.5-2.1,3.6-1.6,5.6H1.5
		c-1.1,0-1.8-1.1-1.3-2.1L11.3,0.8c0.5-1.1,2.2-1.1,2.7,0l11.2,23.3c0.5,1-0.2,2.1-1.3,2.1H17.8z"/>
	<path style="fill:#E74241;" d="M13.7,19.2c-0.6,0.6-1.5,0.6-2.1,0c-0.6-0.6-0.6-1.5,0-2.1c0.6-0.6,1.5-0.6,2.1,0
		C14.2,17.7,14.2,18.6,13.7,19.2z"/>
	<polygon style="fill:#E74241;" points="7.6,26.3 7.6,26.3 7.6,26.3 	"/>
	<path style="fill:#E74241;" d="M17.8,26.3L17.8,26.3C17.8,26.3,17.8,26.3,17.8,26.3L17.8,26.3z"/>
	<path style="fill:#E74241;" d="M17.8,26.3L14,34.2c-0.5,1.1-2.2,1.1-2.7,0l-3.7-7.8c0,0,0,0,0,0c1.3-1.3,3.1-2.1,5.1-2.1
		S16.5,25,17.8,26.3C17.8,26.3,17.8,26.3,17.8,26.3z"/>
</g>
<g>
	<path style="fill:#F5F5F5;" d="M35.2,7.5v15.2h4.9l1.6,3.2H32V7.5H35.2z"/>
	<path style="fill:#F5F5F5;" d="M55.8,18.8v8L52.3,25c-1.1,0.7-2.3,1-3.7,1c-2,0-3.7-0.7-5.1-2.1c-1.4-1.4-2.1-3.1-2.1-5.1
		c0-2,0.7-3.7,2.1-5.1c1.4-1.4,3.1-2.1,5.1-2.1s3.7,0.7,5.1,2.1C55.1,15.1,55.8,16.8,55.8,18.8z M51.4,15.9
		c-0.8-0.8-1.7-1.2-2.8-1.2c-1.1,0-2.1,0.4-2.8,1.2c-0.8,0.8-1.2,1.7-1.2,2.8c0,1.1,0.4,2,1.2,2.8c0.8,0.8,1.7,1.2,2.8,1.2
		c1.1,0,2.1-0.4,2.8-1.2c0.8-0.8,1.2-1.7,1.2-2.8C52.6,17.7,52.2,16.7,51.4,15.9z"/>
	<path style="fill:#F5F5F5;" d="M57.5,19.6v-8h3.2v8c0,0.9,0.3,1.6,0.9,2.3c0.6,0.6,1.4,1,2.3,1c0.9,0,1.6-0.3,2.3-1
		c0.6-0.6,0.9-1.4,0.9-2.3v-8h3.2v8c0,1.8-0.6,3.3-1.9,4.5c-1.3,1.3-2.8,1.9-4.5,1.9c-1.8,0-3.3-0.6-4.5-1.9
		C58.1,22.9,57.5,21.3,57.5,19.6z"/>
	<path style="fill:#F5F5F5;" d="M84.8,18v8h-3.2v-8c0-0.9-0.3-1.6-0.9-2.3c-0.6-0.6-1.4-0.9-2.3-0.9c-0.9,0-1.6,0.3-2.3,0.9
		c-0.6,0.6-0.9,1.4-0.9,2.3v8L72,27.6V18c0-1.8,0.6-3.3,1.9-4.5c1.3-1.3,2.8-1.9,4.5-1.9c1.8,0,3.3,0.6,4.5,1.9
		C84.2,14.7,84.8,16.2,84.8,18z"/>
	<path style="fill:#F5F5F5;" d="M93.7,26c-2,0-3.7-0.7-5.1-2.1c-1.4-1.4-2.1-3.1-2.1-5.1c0-2,0.7-3.7,2.1-5.1
		c1.4-1.4,3.1-2.1,5.1-2.1c1.4,0,2.7,0.4,3.9,1.2c1.2,0.8,2.1,1.8,2.6,3.1h-3.9c-0.8-0.7-1.7-1-2.7-1c-1.1,0-2,0.4-2.8,1.2
		c-0.8,0.8-1.2,1.7-1.2,2.9c0,1.1,0.4,2,1.2,2.8c0.8,0.8,1.7,1.2,2.8,1.2c1.2,0,2.2-0.5,3-1.4h3.7c-0.5,1.4-1.4,2.5-2.6,3.3
		C96.5,25.6,95.2,26,93.7,26z"/>
	<path style="fill:#F5F5F5;" d="M114.5,18v8h-3.2v-8c0-0.9-0.3-1.6-0.9-2.3c-0.6-0.6-1.4-0.9-2.3-0.9c-0.9,0-1.6,0.3-2.3,0.9
		c-0.6,0.6-0.9,1.4-0.9,2.3v8h-3.2V7.5l3.2,1.6v3.3c1-0.6,2-0.9,3.2-0.9c1.8,0,3.3,0.6,4.5,1.9C113.9,14.7,114.5,16.2,114.5,18z"/>
	<polygon style="fill:#F5F5F5;" points="132.9,26 130.3,26 124.6,11.1 118.9,26 116.3,26 123.4,7.5 125.8,7.5 	"/>
	<path style="fill:#F5F5F5;" d="M143.6,18.5L147,26h-2.6l-3.2-7.2h-4V26l-2.4,1.2V16.4h7.2c0.9,0,1.6-0.3,2.3-1
		c0.6-0.6,0.9-1.4,0.9-2.3c0-0.9-0.3-1.6-0.9-2.3c-0.6-0.6-1.4-1-2.3-1h-7.2V7.5h7.2c1.5,0,2.9,0.6,4,1.7c1.1,1.1,1.7,2.4,1.7,4
		c0,1.2-0.4,2.3-1.1,3.3C145.7,17.5,144.8,18.2,143.6,18.5z"/>
	<path style="fill:#F5F5F5;" d="M160,7.5V10h-4.4v16l-2.4,1.2V10h-4.4V7.5H160z"/>
</g>
<g>
</g>
<g>
</g>
<g>
</g>
<g>
</g>
<g>
</g>
<g>
</g>
</svg>
